<svg xmlns="http://www.w3.org/2000/svg" viewBox="0 0 1200 720" role="img" aria-labelledby="title description"><title id="title">The World Forgot Us project card</title><desc id="description">A dark top-down road network with a cyan trace signal,amber carriage light and campaign statistics.</desc><defs><linearGradient id="bg" x1="0" y1="0" x2="1" y2="1"><stop offset="0" stop-color="#0c1518"/><stop offset="0.55" stop-color="#172327"/><stop offset="1" stop-color="#27312e"/></linearGradient><radialGradient id="trace" cx="50%" cy="50%" r="50%"><stop offset="0" stop-color="#b8ffff" stop-opacity=".95"/><stop offset=".35" stop-color="#43d6de" stop-opacity=".4"/><stop offset="1" stop-color="#43d6de" stop-opacity="0"/></radialGradient><radialGradient id="safe" cx="50%" cy="50%" r="50%"><stop offset="0" stop-color="#ffc56f" stop-opacity=".95"/><stop offset=".45" stop-color="#d98535" stop-opacity=".35"/><stop offset="1" stop-color="#d98535" stop-opacity="0"/></radialGradient><filter id="soft"><feGaussianBlur stdDeviation="10"/></filter></defs><rect width="1200" height="720" rx="38" fill="url(#bg)"/><g opacity=".18" stroke="#9baba8" stroke-width="2"><path d="M0 116H1200M0 232H1200M0 348H1200M0 464H1200M0 580H1200"/><path d="M150 0V720M300 0V720M450 0V720M600 0V720M750 0V720M900 0V720M1050 0V720"/></g><g transform="translate(620 60)"><path d="M22 0 148 40 265 20 370 106 510 128 520 250 438 330 470 448 348 520 220 474 124 538 30 448 58 318 0 222Z" fill="#1a2527" stroke="#415357" stroke-width="5"/><path d="M58 318 164 252 256 278 338 208 444 236 520 250" fill="none" stroke="#777b73" stroke-width="24" stroke-linecap="round" stroke-linejoin="round"/><path d="M124 538 170 422 256 364 348 520" fill="none" stroke="#777b73" stroke-width="18" stroke-linecap="round" stroke-linejoin="round"/><path d="M148 40 180 142 256 278" fill="none" stroke="#777b73" stroke-width="16" stroke-linecap="round" stroke-linejoin="round"/><path d="M370 106 338 208" fill="none" stroke="#777b73" stroke-width="14" stroke-linecap="round"/><g fill="#303c3d" stroke="#637173" stroke-width="3"><rect x="82" y="176" width="102" height="62" rx="8"/><rect x="286" y="118" width="88" height="88" rx="8"/><rect x="384" y="278" width="94" height="70" rx="8"/><rect x="200" y="396" width="110" height="64" rx="8"/></g><circle cx="256" cy="278" r="150" fill="url(#trace)"/><circle cx="256" cy="278" r="74" fill="none" stroke="#6df5ff" stroke-width="6" opacity=".82"/><circle cx="256" cy="278" r="112" fill="none" stroke="#6df5ff" stroke-width="3" opacity=".48"/><circle cx="256" cy="278" r="12" fill="#d8ffff"/><circle cx="145" cy="445" r="112" fill="url(#safe)"/><rect x="109" y="418" width="76" height="36" rx="5" fill="#8f552d" stroke="#ffc77e" stroke-width="4"/><path d="M120 418V396h54v22" fill="none" stroke="#ffc77e" stroke-width="4"/></g><g transform="translate(70 72)"><rect width="176" height="40" rx="20" fill="#63dfe5" opacity=".12" stroke="#63dfe5" stroke-width="2"/><text x="88" y="27" text-anchor="middle" fill="#91f7fa" font-family="Arial,sans-serif" font-size="17" font-weight="700" letter-spacing="1.4">PLAYABLE GAME</text><text x="0" y="128" fill="#f1efe7" font-family="Georgia,serif" font-size="66" font-weight="700">The World</text><text x="0" y="198" fill="#f1efe7" font-family="Georgia,serif" font-size="66" font-weight="700">Forgot Us</text><text x="0" y="250" fill="#aebcba" font-family="Arial,sans-serif" font-size="25">A four-area campaign built in Godot 4.7.</text><g transform="translate(0 320)" font-family="Arial,sans-serif"><text x="0" y="0" fill="#63dfe5" font-size="48" font-weight="800">4</text><text x="55" y="-5" fill="#e9ede9" font-size="20" font-weight="700">connected areas</text><text x="55" y="22" fill="#9eafad" font-size="17">persistent campaign state</text><text x="0" y="100" fill="#f0a94f" font-size="48" font-weight="800">3</text><text x="55" y="95" fill="#e9ede9" font-size="20" font-weight="700">ending routes</text><text x="55" y="122" fill="#9eafad" font-size="17">combat,puzzles and records</text><text x="0" y="200" fill="#d7e1dd" font-size="27" font-weight="800">CI</text><text x="55" y="195" fill="#e9ede9" font-size="20" font-weight="700">tested web export</text><text x="55" y="222" fill="#9eafad" font-size="17">automated Godot smoke checks</text></g></g></svg>